<mxfile host="app.diagrams.net" agent="Mozilla/5.0 (Windows NT 10.0; Win64; x64) AppleWebKit/537.36 (KHTML, like Gecko) Chrome/135.0.0.0 Safari/537.36" version="26.2.14">
  <diagram name="Page-1" id="viLh9X61BBIF7k07UbUM">
    <mxGraphModel dx="1042" dy="527" grid="1" gridSize="10" guides="1" tooltips="1" connect="1" arrows="1" fold="1" page="1" pageScale="1" pageWidth="1920" pageHeight="1200" math="0" shadow="0">
      <root>
        <mxCell id="0" />
        <mxCell id="1" parent="0" />
        <mxCell id="RrWGtmdC04Ay6vht-ITu-93" value="" style="swimlane;startSize=0;" parent="1" vertex="1">
          <mxGeometry x="318" y="398" width="84" height="44" as="geometry">
            <mxRectangle x="1220" y="230" width="50" height="40" as="alternateBounds" />
          </mxGeometry>
        </mxCell>
        <mxCell id="RrWGtmdC04Ay6vht-ITu-144" style="edgeStyle=orthogonalEdgeStyle;rounded=0;orthogonalLoop=1;jettySize=auto;html=1;shape=link;" parent="1" source="RrWGtmdC04Ay6vht-ITu-104" target="RrWGtmdC04Ay6vht-ITu-137" edge="1">
          <mxGeometry relative="1" as="geometry">
            <Array as="points">
              <mxPoint x="1060" y="260" />
              <mxPoint x="1060" y="260" />
            </Array>
          </mxGeometry>
        </mxCell>
        <mxCell id="RrWGtmdC04Ay6vht-ITu-146" value="&lt;span style=&quot;font-size: 14px;&quot;&gt;0:N&lt;/span&gt;" style="edgeLabel;html=1;align=center;verticalAlign=middle;resizable=0;points=[];" parent="RrWGtmdC04Ay6vht-ITu-144" connectable="0" vertex="1">
          <mxGeometry x="-0.0171" y="2" relative="1" as="geometry">
            <mxPoint as="offset" />
          </mxGeometry>
        </mxCell>
        <mxCell id="RrWGtmdC04Ay6vht-ITu-104" value="Product" style="rounded=0;whiteSpace=wrap;html=1;" parent="1" vertex="1">
          <mxGeometry x="920" y="240" width="80" height="40" as="geometry" />
        </mxCell>
        <mxCell id="RrWGtmdC04Ay6vht-ITu-105" value="Category" style="rounded=0;whiteSpace=wrap;html=1;" parent="1" vertex="1">
          <mxGeometry x="520" y="240" width="80" height="40" as="geometry" />
        </mxCell>
        <mxCell id="RrWGtmdC04Ay6vht-ITu-145" style="edgeStyle=orthogonalEdgeStyle;rounded=0;orthogonalLoop=1;jettySize=auto;html=1;endArrow=none;startFill=0;" parent="1" source="RrWGtmdC04Ay6vht-ITu-106" target="RrWGtmdC04Ay6vht-ITu-137" edge="1">
          <mxGeometry relative="1" as="geometry">
            <Array as="points">
              <mxPoint x="1250" y="260" />
              <mxPoint x="1250" y="260" />
            </Array>
          </mxGeometry>
        </mxCell>
        <mxCell id="RrWGtmdC04Ay6vht-ITu-147" value="&lt;font style=&quot;font-size: 14px;&quot;&gt;1:1&lt;/font&gt;" style="edgeLabel;html=1;align=center;verticalAlign=middle;resizable=0;points=[];" parent="RrWGtmdC04Ay6vht-ITu-145" connectable="0" vertex="1">
          <mxGeometry x="-0.0013" y="-1" relative="1" as="geometry">
            <mxPoint as="offset" />
          </mxGeometry>
        </mxCell>
        <mxCell id="RrWGtmdC04Ay6vht-ITu-106" value="Brand" style="rounded=0;whiteSpace=wrap;html=1;" parent="1" vertex="1">
          <mxGeometry x="1320" y="240" width="80" height="40" as="geometry" />
        </mxCell>
        <mxCell id="RrWGtmdC04Ay6vht-ITu-107" value="User" style="rounded=0;whiteSpace=wrap;html=1;" parent="1" vertex="1">
          <mxGeometry x="120" y="560" width="80" height="40" as="geometry" />
        </mxCell>
        <mxCell id="RrWGtmdC04Ay6vht-ITu-108" value="Payment" style="rounded=0;whiteSpace=wrap;html=1;" parent="1" vertex="1">
          <mxGeometry x="320" y="400" width="80" height="40" as="geometry" />
        </mxCell>
        <mxCell id="RrWGtmdC04Ay6vht-ITu-112" style="edgeStyle=orthogonalEdgeStyle;rounded=0;orthogonalLoop=1;jettySize=auto;html=1;endArrow=none;startFill=0;" parent="1" source="RrWGtmdC04Ay6vht-ITu-115" target="RrWGtmdC04Ay6vht-ITu-114" edge="1">
          <mxGeometry relative="1" as="geometry">
            <mxPoint x="850" y="740" as="targetPoint" />
          </mxGeometry>
        </mxCell>
        <mxCell id="RrWGtmdC04Ay6vht-ITu-113" value="&lt;font style=&quot;font-size: 14px;&quot;&gt;1:1&lt;/font&gt;" style="edgeLabel;html=1;align=center;verticalAlign=middle;resizable=0;points=[];" parent="RrWGtmdC04Ay6vht-ITu-112" connectable="0" vertex="1">
          <mxGeometry x="-0.2204" y="2" relative="1" as="geometry">
            <mxPoint x="11" y="2" as="offset" />
          </mxGeometry>
        </mxCell>
        <mxCell id="RrWGtmdC04Ay6vht-ITu-126" style="edgeStyle=orthogonalEdgeStyle;rounded=0;orthogonalLoop=1;jettySize=auto;html=1;" parent="1" source="RrWGtmdC04Ay6vht-ITu-114" target="RrWGtmdC04Ay6vht-ITu-109" edge="1">
          <mxGeometry relative="1" as="geometry" />
        </mxCell>
        <mxCell id="RrWGtmdC04Ay6vht-ITu-143" value="&lt;font style=&quot;font-size: 14px;&quot;&gt;1:N&lt;/font&gt;" style="edgeLabel;html=1;align=center;verticalAlign=middle;resizable=0;points=[];" parent="RrWGtmdC04Ay6vht-ITu-126" connectable="0" vertex="1">
          <mxGeometry x="-0.0161" y="4" relative="1" as="geometry">
            <mxPoint y="4" as="offset" />
          </mxGeometry>
        </mxCell>
        <mxCell id="RrWGtmdC04Ay6vht-ITu-114" value="Contains" style="rhombus;whiteSpace=wrap;html=1;" parent="1" vertex="1">
          <mxGeometry x="722" y="540" width="80" height="80" as="geometry" />
        </mxCell>
        <mxCell id="RrWGtmdC04Ay6vht-ITu-115" value="Order" style="rounded=0;whiteSpace=wrap;html=1;" parent="1" vertex="1">
          <mxGeometry x="520" y="560" width="80" height="40" as="geometry" />
        </mxCell>
        <mxCell id="RrWGtmdC04Ay6vht-ITu-116" value="" style="swimlane;startSize=0;" parent="1" vertex="1">
          <mxGeometry x="918" y="558" width="84" height="44" as="geometry" />
        </mxCell>
        <mxCell id="RrWGtmdC04Ay6vht-ITu-109" value="OrderItem" style="rounded=0;whiteSpace=wrap;html=1;" parent="RrWGtmdC04Ay6vht-ITu-116" vertex="1">
          <mxGeometry x="2" y="2" width="80" height="40" as="geometry" />
        </mxCell>
        <mxCell id="RrWGtmdC04Ay6vht-ITu-117" value="" style="swimlane;startSize=0;" parent="1" vertex="1">
          <mxGeometry x="518" y="558" width="84" height="44" as="geometry">
            <mxRectangle x="1220" y="230" width="50" height="40" as="alternateBounds" />
          </mxGeometry>
        </mxCell>
        <mxCell id="RrWGtmdC04Ay6vht-ITu-123" style="edgeStyle=orthogonalEdgeStyle;rounded=0;orthogonalLoop=1;jettySize=auto;html=1;shape=link;" parent="1" source="RrWGtmdC04Ay6vht-ITu-118" target="RrWGtmdC04Ay6vht-ITu-115" edge="1">
          <mxGeometry relative="1" as="geometry">
            <Array as="points">
              <mxPoint x="490" y="582" />
              <mxPoint x="490" y="582" />
            </Array>
          </mxGeometry>
        </mxCell>
        <mxCell id="RrWGtmdC04Ay6vht-ITu-124" value="&lt;font style=&quot;font-size: 14px;&quot;&gt;0:N&lt;/font&gt;" style="edgeLabel;html=1;align=center;verticalAlign=middle;resizable=0;points=[];" parent="RrWGtmdC04Ay6vht-ITu-123" connectable="0" vertex="1">
          <mxGeometry x="-0.0005" y="1" relative="1" as="geometry">
            <mxPoint x="-10" y="-1" as="offset" />
          </mxGeometry>
        </mxCell>
        <mxCell id="RrWGtmdC04Ay6vht-ITu-131" style="edgeStyle=orthogonalEdgeStyle;rounded=0;orthogonalLoop=1;jettySize=auto;html=1;shape=link;" parent="1" source="RrWGtmdC04Ay6vht-ITu-118" target="RrWGtmdC04Ay6vht-ITu-108" edge="1">
          <mxGeometry relative="1" as="geometry" />
        </mxCell>
        <mxCell id="RrWGtmdC04Ay6vht-ITu-132" value="&lt;font style=&quot;font-size: 14px;&quot;&gt;0&lt;/font&gt;&lt;span style=&quot;font-size: 14px; background-color: light-dark(#ffffff, var(--ge-dark-color, #121212)); color: light-dark(rgb(0, 0, 0), rgb(255, 255, 255));&quot;&gt;:N&lt;/span&gt;" style="edgeLabel;html=1;align=center;verticalAlign=middle;resizable=0;points=[];" parent="RrWGtmdC04Ay6vht-ITu-131" connectable="0" vertex="1">
          <mxGeometry x="-0.0077" y="1" relative="1" as="geometry">
            <mxPoint x="1" y="7" as="offset" />
          </mxGeometry>
        </mxCell>
        <mxCell id="RrWGtmdC04Ay6vht-ITu-118" value="Makes" style="rhombus;whiteSpace=wrap;html=1;" parent="1" vertex="1">
          <mxGeometry x="320" y="542" width="80" height="80" as="geometry" />
        </mxCell>
        <mxCell id="RrWGtmdC04Ay6vht-ITu-119" style="edgeStyle=orthogonalEdgeStyle;rounded=0;orthogonalLoop=1;jettySize=auto;html=1;endArrow=none;startFill=0;" parent="1" source="RrWGtmdC04Ay6vht-ITu-107" target="RrWGtmdC04Ay6vht-ITu-118" edge="1">
          <mxGeometry relative="1" as="geometry" />
        </mxCell>
        <mxCell id="RrWGtmdC04Ay6vht-ITu-120" value="&lt;font style=&quot;font-size: 14px;&quot;&gt;1:1&lt;/font&gt;" style="edgeLabel;html=1;align=center;verticalAlign=middle;resizable=0;points=[];" parent="RrWGtmdC04Ay6vht-ITu-119" connectable="0" vertex="1">
          <mxGeometry x="0.0278" y="-2" relative="1" as="geometry">
            <mxPoint x="-1" y="-4" as="offset" />
          </mxGeometry>
        </mxCell>
        <mxCell id="RrWGtmdC04Ay6vht-ITu-134" style="edgeStyle=orthogonalEdgeStyle;rounded=0;orthogonalLoop=1;jettySize=auto;html=1;endArrow=none;startFill=0;shape=link;" parent="1" source="RrWGtmdC04Ay6vht-ITu-109" target="RrWGtmdC04Ay6vht-ITu-133" edge="1">
          <mxGeometry relative="1" as="geometry" />
        </mxCell>
        <mxCell id="RrWGtmdC04Ay6vht-ITu-229" value="&lt;font style=&quot;font-size: 14px;&quot;&gt;0:N&lt;/font&gt;" style="edgeLabel;html=1;align=center;verticalAlign=middle;resizable=0;points=[];" parent="RrWGtmdC04Ay6vht-ITu-134" connectable="0" vertex="1">
          <mxGeometry x="0.0035" relative="1" as="geometry">
            <mxPoint as="offset" />
          </mxGeometry>
        </mxCell>
        <mxCell id="RrWGtmdC04Ay6vht-ITu-135" style="edgeStyle=orthogonalEdgeStyle;rounded=0;orthogonalLoop=1;jettySize=auto;html=1;" parent="1" source="RrWGtmdC04Ay6vht-ITu-133" target="RrWGtmdC04Ay6vht-ITu-104" edge="1">
          <mxGeometry relative="1" as="geometry" />
        </mxCell>
        <mxCell id="RrWGtmdC04Ay6vht-ITu-230" value="&lt;font style=&quot;font-size: 14px;&quot;&gt;1:1&lt;/font&gt;" style="edgeLabel;html=1;align=center;verticalAlign=middle;resizable=0;points=[];" parent="RrWGtmdC04Ay6vht-ITu-135" connectable="0" vertex="1">
          <mxGeometry x="0.0487" relative="1" as="geometry">
            <mxPoint as="offset" />
          </mxGeometry>
        </mxCell>
        <mxCell id="RrWGtmdC04Ay6vht-ITu-133" value="Contains" style="rhombus;whiteSpace=wrap;html=1;" parent="1" vertex="1">
          <mxGeometry x="920" y="380" width="80" height="80" as="geometry" />
        </mxCell>
        <mxCell id="RrWGtmdC04Ay6vht-ITu-137" value="Sells" style="rhombus;whiteSpace=wrap;html=1;" parent="1" vertex="1">
          <mxGeometry x="1120" y="220" width="80" height="80" as="geometry" />
        </mxCell>
        <mxCell id="RrWGtmdC04Ay6vht-ITu-139" style="edgeStyle=orthogonalEdgeStyle;rounded=0;orthogonalLoop=1;jettySize=auto;html=1;endArrow=none;startFill=0;shape=link;" parent="1" source="RrWGtmdC04Ay6vht-ITu-138" target="RrWGtmdC04Ay6vht-ITu-104" edge="1">
          <mxGeometry relative="1" as="geometry" />
        </mxCell>
        <mxCell id="RrWGtmdC04Ay6vht-ITu-141" value="&lt;font style=&quot;font-size: 14px;&quot;&gt;1:N&lt;/font&gt;" style="edgeLabel;html=1;align=center;verticalAlign=middle;resizable=0;points=[];" parent="RrWGtmdC04Ay6vht-ITu-139" connectable="0" vertex="1">
          <mxGeometry x="-0.0342" y="2" relative="1" as="geometry">
            <mxPoint as="offset" />
          </mxGeometry>
        </mxCell>
        <mxCell id="RrWGtmdC04Ay6vht-ITu-140" style="edgeStyle=orthogonalEdgeStyle;rounded=0;orthogonalLoop=1;jettySize=auto;html=1;shape=link;" parent="1" source="RrWGtmdC04Ay6vht-ITu-138" target="RrWGtmdC04Ay6vht-ITu-105" edge="1">
          <mxGeometry relative="1" as="geometry" />
        </mxCell>
        <mxCell id="RrWGtmdC04Ay6vht-ITu-142" value="&lt;font style=&quot;font-size: 14px;&quot;&gt;1:N&lt;/font&gt;" style="edgeLabel;html=1;align=center;verticalAlign=middle;resizable=0;points=[];" parent="RrWGtmdC04Ay6vht-ITu-140" connectable="0" vertex="1">
          <mxGeometry x="0.0339" relative="1" as="geometry">
            <mxPoint as="offset" />
          </mxGeometry>
        </mxCell>
        <mxCell id="RrWGtmdC04Ay6vht-ITu-138" value="Is of" style="rhombus;whiteSpace=wrap;html=1;" parent="1" vertex="1">
          <mxGeometry x="720" y="220" width="80" height="80" as="geometry" />
        </mxCell>
        <mxCell id="RrWGtmdC04Ay6vht-ITu-154" style="edgeStyle=orthogonalEdgeStyle;rounded=1;orthogonalLoop=1;jettySize=auto;html=1;endArrow=none;startFill=0;curved=0;" parent="1" source="RrWGtmdC04Ay6vht-ITu-148" target="RrWGtmdC04Ay6vht-ITu-115" edge="1">
          <mxGeometry relative="1" as="geometry">
            <Array as="points">
              <mxPoint x="480" y="650" />
              <mxPoint x="562" y="650" />
            </Array>
          </mxGeometry>
        </mxCell>
        <mxCell id="RrWGtmdC04Ay6vht-ITu-148" value="UserID" style="ellipse;whiteSpace=wrap;html=1;" parent="1" vertex="1">
          <mxGeometry x="442" y="680" width="80" height="40" as="geometry" />
        </mxCell>
        <mxCell id="RrWGtmdC04Ay6vht-ITu-153" style="edgeStyle=orthogonalEdgeStyle;rounded=1;orthogonalLoop=1;jettySize=auto;html=1;endArrow=none;startFill=0;curved=0;" parent="1" source="RrWGtmdC04Ay6vht-ITu-149" target="RrWGtmdC04Ay6vht-ITu-115" edge="1">
          <mxGeometry relative="1" as="geometry">
            <mxPoint x="550" y="630" as="targetPoint" />
            <Array as="points">
              <mxPoint x="562" y="620" />
              <mxPoint x="562" y="620" />
            </Array>
          </mxGeometry>
        </mxCell>
        <mxCell id="RrWGtmdC04Ay6vht-ITu-149" value="&lt;u&gt;OrderID&lt;/u&gt;" style="ellipse;whiteSpace=wrap;html=1;" parent="1" vertex="1">
          <mxGeometry x="522" y="680" width="80" height="40" as="geometry" />
        </mxCell>
        <mxCell id="RrWGtmdC04Ay6vht-ITu-155" style="edgeStyle=orthogonalEdgeStyle;rounded=1;orthogonalLoop=1;jettySize=auto;html=1;endArrow=none;startFill=0;curved=0;" parent="1" source="RrWGtmdC04Ay6vht-ITu-150" target="RrWGtmdC04Ay6vht-ITu-115" edge="1">
          <mxGeometry relative="1" as="geometry">
            <Array as="points">
              <mxPoint x="642" y="650" />
              <mxPoint x="562" y="650" />
            </Array>
          </mxGeometry>
        </mxCell>
        <mxCell id="RrWGtmdC04Ay6vht-ITu-150" value="OrderDate" style="ellipse;whiteSpace=wrap;html=1;" parent="1" vertex="1">
          <mxGeometry x="602" y="680" width="80" height="40" as="geometry" />
        </mxCell>
        <mxCell id="RrWGtmdC04Ay6vht-ITu-157" style="edgeStyle=orthogonalEdgeStyle;rounded=1;orthogonalLoop=1;jettySize=auto;html=1;curved=0;endArrow=none;startFill=0;" parent="1" source="RrWGtmdC04Ay6vht-ITu-151" target="RrWGtmdC04Ay6vht-ITu-115" edge="1">
          <mxGeometry relative="1" as="geometry">
            <Array as="points">
              <mxPoint x="642" y="540" />
              <mxPoint x="560" y="540" />
            </Array>
          </mxGeometry>
        </mxCell>
        <mxCell id="RrWGtmdC04Ay6vht-ITu-151" value="Status" style="ellipse;whiteSpace=wrap;html=1;" parent="1" vertex="1">
          <mxGeometry x="600" y="480" width="80" height="40" as="geometry" />
        </mxCell>
        <mxCell id="RrWGtmdC04Ay6vht-ITu-156" style="edgeStyle=orthogonalEdgeStyle;rounded=1;orthogonalLoop=1;jettySize=auto;html=1;endArrow=none;startFill=0;curved=0;" parent="1" source="RrWGtmdC04Ay6vht-ITu-152" target="RrWGtmdC04Ay6vht-ITu-115" edge="1">
          <mxGeometry relative="1" as="geometry" />
        </mxCell>
        <mxCell id="RrWGtmdC04Ay6vht-ITu-152" value="TotalAmount" style="ellipse;whiteSpace=wrap;html=1;" parent="1" vertex="1">
          <mxGeometry x="440" y="480" width="80" height="40" as="geometry" />
        </mxCell>
        <mxCell id="RrWGtmdC04Ay6vht-ITu-170" style="edgeStyle=orthogonalEdgeStyle;rounded=1;orthogonalLoop=1;jettySize=auto;html=1;curved=0;endArrow=none;startFill=0;" parent="1" source="RrWGtmdC04Ay6vht-ITu-158" target="RrWGtmdC04Ay6vht-ITu-107" edge="1">
          <mxGeometry relative="1" as="geometry" />
        </mxCell>
        <mxCell id="RrWGtmdC04Ay6vht-ITu-158" value="&lt;u&gt;UserID&lt;/u&gt;" style="ellipse;whiteSpace=wrap;html=1;" parent="1" vertex="1">
          <mxGeometry y="560" width="80" height="40" as="geometry" />
        </mxCell>
        <mxCell id="RrWGtmdC04Ay6vht-ITu-172" style="edgeStyle=orthogonalEdgeStyle;rounded=1;orthogonalLoop=1;jettySize=auto;html=1;endArrow=none;startFill=0;curved=0;" parent="1" source="RrWGtmdC04Ay6vht-ITu-159" target="RrWGtmdC04Ay6vht-ITu-107" edge="1">
          <mxGeometry relative="1" as="geometry">
            <Array as="points">
              <mxPoint x="90" y="620" />
              <mxPoint x="90" y="580" />
            </Array>
          </mxGeometry>
        </mxCell>
        <mxCell id="RrWGtmdC04Ay6vht-ITu-159" value="Username" style="ellipse;whiteSpace=wrap;html=1;" parent="1" vertex="1">
          <mxGeometry y="600" width="80" height="40" as="geometry" />
        </mxCell>
        <mxCell id="RrWGtmdC04Ay6vht-ITu-173" style="edgeStyle=orthogonalEdgeStyle;rounded=1;orthogonalLoop=1;jettySize=auto;html=1;curved=0;endArrow=none;startFill=0;" parent="1" source="RrWGtmdC04Ay6vht-ITu-160" target="RrWGtmdC04Ay6vht-ITu-107" edge="1">
          <mxGeometry relative="1" as="geometry" />
        </mxCell>
        <mxCell id="RrWGtmdC04Ay6vht-ITu-160" value="Password" style="ellipse;whiteSpace=wrap;html=1;" parent="1" vertex="1">
          <mxGeometry x="80" y="640" width="80" height="40" as="geometry" />
        </mxCell>
        <mxCell id="RrWGtmdC04Ay6vht-ITu-171" style="edgeStyle=orthogonalEdgeStyle;rounded=1;orthogonalLoop=1;jettySize=auto;html=1;curved=0;endArrow=none;startFill=0;" parent="1" source="RrWGtmdC04Ay6vht-ITu-161" target="RrWGtmdC04Ay6vht-ITu-107" edge="1">
          <mxGeometry relative="1" as="geometry">
            <Array as="points">
              <mxPoint x="90" y="540" />
              <mxPoint x="90" y="580" />
            </Array>
          </mxGeometry>
        </mxCell>
        <mxCell id="RrWGtmdC04Ay6vht-ITu-161" value="Email" style="ellipse;whiteSpace=wrap;html=1;" parent="1" vertex="1">
          <mxGeometry y="520" width="80" height="40" as="geometry" />
        </mxCell>
        <mxCell id="RrWGtmdC04Ay6vht-ITu-174" style="edgeStyle=orthogonalEdgeStyle;rounded=1;orthogonalLoop=1;jettySize=auto;html=1;curved=0;endArrow=none;startFill=0;" parent="1" source="RrWGtmdC04Ay6vht-ITu-162" target="RrWGtmdC04Ay6vht-ITu-107" edge="1">
          <mxGeometry relative="1" as="geometry" />
        </mxCell>
        <mxCell id="RrWGtmdC04Ay6vht-ITu-162" value="Address" style="ellipse;whiteSpace=wrap;html=1;" parent="1" vertex="1">
          <mxGeometry x="160" y="640" width="80" height="40" as="geometry" />
        </mxCell>
        <mxCell id="RrWGtmdC04Ay6vht-ITu-169" style="edgeStyle=orthogonalEdgeStyle;rounded=1;orthogonalLoop=1;jettySize=auto;html=1;curved=0;endArrow=none;startFill=0;" parent="1" source="RrWGtmdC04Ay6vht-ITu-163" target="RrWGtmdC04Ay6vht-ITu-107" edge="1">
          <mxGeometry relative="1" as="geometry" />
        </mxCell>
        <mxCell id="RrWGtmdC04Ay6vht-ITu-163" value="Name" style="ellipse;whiteSpace=wrap;html=1;" parent="1" vertex="1">
          <mxGeometry x="120" y="478" width="80" height="40" as="geometry" />
        </mxCell>
        <mxCell id="RrWGtmdC04Ay6vht-ITu-168" style="edgeStyle=orthogonalEdgeStyle;rounded=1;orthogonalLoop=1;jettySize=auto;html=1;curved=0;endArrow=none;startFill=0;" parent="1" source="RrWGtmdC04Ay6vht-ITu-164" target="RrWGtmdC04Ay6vht-ITu-163" edge="1">
          <mxGeometry relative="1" as="geometry" />
        </mxCell>
        <mxCell id="RrWGtmdC04Ay6vht-ITu-164" value="Firstname" style="ellipse;whiteSpace=wrap;html=1;" parent="1" vertex="1">
          <mxGeometry x="80" y="400" width="80" height="40" as="geometry" />
        </mxCell>
        <mxCell id="RrWGtmdC04Ay6vht-ITu-166" style="edgeStyle=orthogonalEdgeStyle;rounded=1;orthogonalLoop=1;jettySize=auto;html=1;curved=0;endArrow=none;startFill=0;" parent="1" source="RrWGtmdC04Ay6vht-ITu-165" target="RrWGtmdC04Ay6vht-ITu-163" edge="1">
          <mxGeometry relative="1" as="geometry" />
        </mxCell>
        <mxCell id="RrWGtmdC04Ay6vht-ITu-165" value="Lastname" style="ellipse;whiteSpace=wrap;html=1;" parent="1" vertex="1">
          <mxGeometry x="160" y="400" width="80" height="40" as="geometry" />
        </mxCell>
        <mxCell id="RrWGtmdC04Ay6vht-ITu-184" style="edgeStyle=orthogonalEdgeStyle;rounded=1;orthogonalLoop=1;jettySize=auto;html=1;endArrow=none;startFill=0;curved=0;" parent="1" source="RrWGtmdC04Ay6vht-ITu-175" target="RrWGtmdC04Ay6vht-ITu-108" edge="1">
          <mxGeometry relative="1" as="geometry">
            <Array as="points">
              <mxPoint x="480" y="380" />
              <mxPoint x="360" y="380" />
            </Array>
          </mxGeometry>
        </mxCell>
        <mxCell id="RrWGtmdC04Ay6vht-ITu-175" value="Amount" style="ellipse;whiteSpace=wrap;html=1;" parent="1" vertex="1">
          <mxGeometry x="440" y="320" width="80" height="40" as="geometry" />
        </mxCell>
        <mxCell id="RrWGtmdC04Ay6vht-ITu-183" style="edgeStyle=orthogonalEdgeStyle;rounded=1;orthogonalLoop=1;jettySize=auto;html=1;endArrow=none;startFill=0;curved=0;" parent="1" source="RrWGtmdC04Ay6vht-ITu-176" target="RrWGtmdC04Ay6vht-ITu-108" edge="1">
          <mxGeometry relative="1" as="geometry">
            <Array as="points">
              <mxPoint x="240" y="380" />
              <mxPoint x="360" y="380" />
            </Array>
          </mxGeometry>
        </mxCell>
        <mxCell id="RrWGtmdC04Ay6vht-ITu-176" value="OrderID" style="ellipse;whiteSpace=wrap;html=1;" parent="1" vertex="1">
          <mxGeometry x="200" y="320" width="80" height="40" as="geometry" />
        </mxCell>
        <mxCell id="RrWGtmdC04Ay6vht-ITu-181" style="edgeStyle=orthogonalEdgeStyle;rounded=1;orthogonalLoop=1;jettySize=auto;html=1;endArrow=none;startFill=0;curved=0;" parent="1" source="RrWGtmdC04Ay6vht-ITu-177" target="RrWGtmdC04Ay6vht-ITu-108" edge="1">
          <mxGeometry relative="1" as="geometry">
            <Array as="points">
              <mxPoint x="400" y="380" />
              <mxPoint x="360" y="380" />
            </Array>
          </mxGeometry>
        </mxCell>
        <mxCell id="RrWGtmdC04Ay6vht-ITu-177" value="&lt;font style=&quot;font-size: 10px;&quot;&gt;PaymentMethod&lt;/font&gt;" style="ellipse;whiteSpace=wrap;html=1;" parent="1" vertex="1">
          <mxGeometry x="360" y="320" width="80" height="40" as="geometry" />
        </mxCell>
        <mxCell id="RrWGtmdC04Ay6vht-ITu-186" style="edgeStyle=orthogonalEdgeStyle;rounded=1;orthogonalLoop=1;jettySize=auto;html=1;curved=0;endArrow=none;startFill=0;" parent="1" source="RrWGtmdC04Ay6vht-ITu-178" target="RrWGtmdC04Ay6vht-ITu-108" edge="1">
          <mxGeometry relative="1" as="geometry">
            <Array as="points">
              <mxPoint x="360" y="260" />
            </Array>
          </mxGeometry>
        </mxCell>
        <mxCell id="RrWGtmdC04Ay6vht-ITu-178" value="PaymentDate" style="ellipse;whiteSpace=wrap;html=1;" parent="1" vertex="1">
          <mxGeometry x="240" y="240" width="80" height="40" as="geometry" />
        </mxCell>
        <mxCell id="RrWGtmdC04Ay6vht-ITu-185" style="edgeStyle=orthogonalEdgeStyle;rounded=1;orthogonalLoop=1;jettySize=auto;html=1;curved=0;endArrow=none;startFill=0;" parent="1" source="RrWGtmdC04Ay6vht-ITu-179" target="RrWGtmdC04Ay6vht-ITu-108" edge="1">
          <mxGeometry relative="1" as="geometry">
            <Array as="points">
              <mxPoint x="360" y="260" />
            </Array>
          </mxGeometry>
        </mxCell>
        <mxCell id="RrWGtmdC04Ay6vht-ITu-179" value="Status" style="ellipse;whiteSpace=wrap;html=1;" parent="1" vertex="1">
          <mxGeometry x="400" y="240" width="80" height="40" as="geometry" />
        </mxCell>
        <mxCell id="RrWGtmdC04Ay6vht-ITu-182" style="edgeStyle=orthogonalEdgeStyle;rounded=1;orthogonalLoop=1;jettySize=auto;html=1;curved=0;endArrow=none;startFill=0;" parent="1" source="RrWGtmdC04Ay6vht-ITu-180" target="RrWGtmdC04Ay6vht-ITu-108" edge="1">
          <mxGeometry relative="1" as="geometry">
            <Array as="points">
              <mxPoint x="320" y="380" />
              <mxPoint x="360" y="380" />
            </Array>
          </mxGeometry>
        </mxCell>
        <mxCell id="RrWGtmdC04Ay6vht-ITu-180" value="&lt;u&gt;PaymentID&lt;/u&gt;" style="ellipse;whiteSpace=wrap;html=1;" parent="1" vertex="1">
          <mxGeometry x="280" y="320" width="80" height="40" as="geometry" />
        </mxCell>
        <mxCell id="RrWGtmdC04Ay6vht-ITu-194" style="edgeStyle=orthogonalEdgeStyle;rounded=1;orthogonalLoop=1;jettySize=auto;html=1;curved=0;endArrow=none;startFill=0;" parent="1" source="RrWGtmdC04Ay6vht-ITu-190" target="RrWGtmdC04Ay6vht-ITu-106" edge="1">
          <mxGeometry relative="1" as="geometry" />
        </mxCell>
        <mxCell id="RrWGtmdC04Ay6vht-ITu-190" value="&lt;u&gt;BrandID&lt;/u&gt;" style="ellipse;whiteSpace=wrap;html=1;" parent="1" vertex="1">
          <mxGeometry x="1440" y="240" width="80" height="40" as="geometry" />
        </mxCell>
        <mxCell id="RrWGtmdC04Ay6vht-ITu-191" value="Name" style="ellipse;whiteSpace=wrap;html=1;" parent="1" vertex="1">
          <mxGeometry x="1320" y="320" width="80" height="40" as="geometry" />
        </mxCell>
        <mxCell id="RrWGtmdC04Ay6vht-ITu-193" style="edgeStyle=orthogonalEdgeStyle;rounded=1;orthogonalLoop=1;jettySize=auto;html=1;curved=0;endArrow=none;startFill=0;" parent="1" source="RrWGtmdC04Ay6vht-ITu-192" target="RrWGtmdC04Ay6vht-ITu-106" edge="1">
          <mxGeometry relative="1" as="geometry" />
        </mxCell>
        <mxCell id="RrWGtmdC04Ay6vht-ITu-192" value="Description" style="ellipse;whiteSpace=wrap;html=1;" parent="1" vertex="1">
          <mxGeometry x="1320" y="160" width="80" height="40" as="geometry" />
        </mxCell>
        <mxCell id="RrWGtmdC04Ay6vht-ITu-195" style="edgeStyle=orthogonalEdgeStyle;rounded=1;orthogonalLoop=1;jettySize=auto;html=1;curved=0;endArrow=none;startFill=0;" parent="1" source="RrWGtmdC04Ay6vht-ITu-191" target="RrWGtmdC04Ay6vht-ITu-106" edge="1">
          <mxGeometry relative="1" as="geometry" />
        </mxCell>
        <mxCell id="RrWGtmdC04Ay6vht-ITu-196" value="&lt;u&gt;Cat&lt;span style=&quot;background-color: transparent; color: light-dark(rgb(0, 0, 0), rgb(255, 255, 255));&quot;&gt;egoryID&lt;/span&gt;&lt;/u&gt;" style="ellipse;whiteSpace=wrap;html=1;" parent="1" vertex="1">
          <mxGeometry x="520" y="160" width="80" height="40" as="geometry" />
        </mxCell>
        <mxCell id="RrWGtmdC04Ay6vht-ITu-197" style="edgeStyle=orthogonalEdgeStyle;rounded=1;orthogonalLoop=1;jettySize=auto;html=1;curved=0;endArrow=none;startFill=0;" parent="1" source="RrWGtmdC04Ay6vht-ITu-196" target="RrWGtmdC04Ay6vht-ITu-105" edge="1">
          <mxGeometry relative="1" as="geometry">
            <mxPoint x="560" y="240" as="targetPoint" />
            <Array as="points" />
          </mxGeometry>
        </mxCell>
        <mxCell id="RrWGtmdC04Ay6vht-ITu-198" value="Name" style="ellipse;whiteSpace=wrap;html=1;" parent="1" vertex="1">
          <mxGeometry x="440" y="120" width="80" height="40" as="geometry" />
        </mxCell>
        <mxCell id="RrWGtmdC04Ay6vht-ITu-199" style="edgeStyle=orthogonalEdgeStyle;rounded=1;orthogonalLoop=1;jettySize=auto;html=1;endArrow=none;startFill=0;curved=0;" parent="1" source="RrWGtmdC04Ay6vht-ITu-198" target="RrWGtmdC04Ay6vht-ITu-105" edge="1">
          <mxGeometry relative="1" as="geometry">
            <mxPoint x="560" y="240" as="targetPoint" />
            <Array as="points">
              <mxPoint x="480" y="220" />
              <mxPoint x="560" y="220" />
            </Array>
          </mxGeometry>
        </mxCell>
        <mxCell id="RrWGtmdC04Ay6vht-ITu-200" value="Description" style="ellipse;whiteSpace=wrap;html=1;" parent="1" vertex="1">
          <mxGeometry x="600" y="120" width="80" height="40" as="geometry" />
        </mxCell>
        <mxCell id="RrWGtmdC04Ay6vht-ITu-201" style="edgeStyle=orthogonalEdgeStyle;rounded=1;orthogonalLoop=1;jettySize=auto;html=1;endArrow=none;startFill=0;curved=0;" parent="1" source="RrWGtmdC04Ay6vht-ITu-200" target="RrWGtmdC04Ay6vht-ITu-105" edge="1">
          <mxGeometry relative="1" as="geometry">
            <mxPoint x="560" y="240" as="targetPoint" />
            <Array as="points">
              <mxPoint x="640" y="220" />
              <mxPoint x="560" y="220" />
            </Array>
          </mxGeometry>
        </mxCell>
        <mxCell id="RrWGtmdC04Ay6vht-ITu-210" style="edgeStyle=orthogonalEdgeStyle;rounded=1;orthogonalLoop=1;jettySize=auto;html=1;curved=0;endArrow=none;startFill=0;" parent="1" source="RrWGtmdC04Ay6vht-ITu-202" target="RrWGtmdC04Ay6vht-ITu-104" edge="1">
          <mxGeometry relative="1" as="geometry" />
        </mxCell>
        <mxCell id="RrWGtmdC04Ay6vht-ITu-202" value="&lt;u&gt;ProductID&lt;/u&gt;" style="ellipse;whiteSpace=wrap;html=1;" parent="1" vertex="1">
          <mxGeometry x="920" y="160" width="80" height="40" as="geometry" />
        </mxCell>
        <mxCell id="RrWGtmdC04Ay6vht-ITu-212" style="edgeStyle=orthogonalEdgeStyle;rounded=1;orthogonalLoop=1;jettySize=auto;html=1;curved=0;endArrow=none;startFill=0;" parent="1" source="RrWGtmdC04Ay6vht-ITu-203" target="RrWGtmdC04Ay6vht-ITu-104" edge="1">
          <mxGeometry relative="1" as="geometry">
            <Array as="points">
              <mxPoint x="840" y="220" />
              <mxPoint x="960" y="220" />
            </Array>
          </mxGeometry>
        </mxCell>
        <mxCell id="RrWGtmdC04Ay6vht-ITu-203" value="Name" style="ellipse;whiteSpace=wrap;html=1;" parent="1" vertex="1">
          <mxGeometry x="800" y="160" width="80" height="40" as="geometry" />
        </mxCell>
        <mxCell id="RrWGtmdC04Ay6vht-ITu-211" style="edgeStyle=orthogonalEdgeStyle;rounded=1;orthogonalLoop=1;jettySize=auto;html=1;curved=0;endArrow=none;startFill=0;" parent="1" source="RrWGtmdC04Ay6vht-ITu-204" target="RrWGtmdC04Ay6vht-ITu-104" edge="1">
          <mxGeometry relative="1" as="geometry">
            <Array as="points">
              <mxPoint x="1080" y="220" />
              <mxPoint x="960" y="220" />
            </Array>
          </mxGeometry>
        </mxCell>
        <mxCell id="RrWGtmdC04Ay6vht-ITu-204" value="Description" style="ellipse;whiteSpace=wrap;html=1;" parent="1" vertex="1">
          <mxGeometry x="1040" y="160" width="80" height="40" as="geometry" />
        </mxCell>
        <mxCell id="RrWGtmdC04Ay6vht-ITu-216" style="edgeStyle=orthogonalEdgeStyle;rounded=1;orthogonalLoop=1;jettySize=auto;html=1;endArrow=none;startFill=0;curved=0;" parent="1" source="RrWGtmdC04Ay6vht-ITu-205" target="RrWGtmdC04Ay6vht-ITu-104" edge="1">
          <mxGeometry relative="1" as="geometry">
            <Array as="points">
              <mxPoint x="840" y="140" />
              <mxPoint x="900" y="140" />
              <mxPoint x="900" y="220" />
              <mxPoint x="960" y="220" />
            </Array>
          </mxGeometry>
        </mxCell>
        <mxCell id="RrWGtmdC04Ay6vht-ITu-205" value="Price" style="ellipse;whiteSpace=wrap;html=1;" parent="1" vertex="1">
          <mxGeometry x="800" width="80" height="40" as="geometry" />
        </mxCell>
        <mxCell id="RrWGtmdC04Ay6vht-ITu-215" style="edgeStyle=orthogonalEdgeStyle;rounded=1;orthogonalLoop=1;jettySize=auto;html=1;curved=0;endArrow=none;startFill=0;" parent="1" source="RrWGtmdC04Ay6vht-ITu-206" target="RrWGtmdC04Ay6vht-ITu-104" edge="1">
          <mxGeometry relative="1" as="geometry">
            <Array as="points">
              <mxPoint x="1080" y="140" />
              <mxPoint x="1020" y="140" />
              <mxPoint x="1020" y="220" />
              <mxPoint x="960" y="220" />
            </Array>
          </mxGeometry>
        </mxCell>
        <mxCell id="RrWGtmdC04Ay6vht-ITu-206" value="StockQuantity" style="ellipse;whiteSpace=wrap;html=1;" parent="1" vertex="1">
          <mxGeometry x="1040" width="80" height="40" as="geometry" />
        </mxCell>
        <mxCell id="RrWGtmdC04Ay6vht-ITu-213" style="edgeStyle=orthogonalEdgeStyle;rounded=1;orthogonalLoop=1;jettySize=auto;html=1;curved=0;endArrow=none;startFill=0;" parent="1" source="RrWGtmdC04Ay6vht-ITu-207" target="RrWGtmdC04Ay6vht-ITu-104" edge="1">
          <mxGeometry relative="1" as="geometry">
            <Array as="points">
              <mxPoint x="1020" y="220" />
              <mxPoint x="960" y="220" />
            </Array>
          </mxGeometry>
        </mxCell>
        <mxCell id="RrWGtmdC04Ay6vht-ITu-207" value="BrandID" style="ellipse;whiteSpace=wrap;html=1;" parent="1" vertex="1">
          <mxGeometry x="980" y="80" width="80" height="40" as="geometry" />
        </mxCell>
        <mxCell id="RrWGtmdC04Ay6vht-ITu-214" style="edgeStyle=orthogonalEdgeStyle;rounded=1;orthogonalLoop=1;jettySize=auto;html=1;curved=0;endArrow=none;startFill=0;" parent="1" source="RrWGtmdC04Ay6vht-ITu-208" target="RrWGtmdC04Ay6vht-ITu-104" edge="1">
          <mxGeometry relative="1" as="geometry">
            <Array as="points">
              <mxPoint x="900" y="220" />
              <mxPoint x="960" y="220" />
            </Array>
          </mxGeometry>
        </mxCell>
        <mxCell id="RrWGtmdC04Ay6vht-ITu-208" value="Cat&lt;span style=&quot;background-color: transparent; color: light-dark(rgb(0, 0, 0), rgb(255, 255, 255));&quot;&gt;egoryID&lt;/span&gt;" style="ellipse;whiteSpace=wrap;html=1;" parent="1" vertex="1">
          <mxGeometry x="860" y="80" width="80" height="40" as="geometry" />
        </mxCell>
        <mxCell id="RrWGtmdC04Ay6vht-ITu-222" style="edgeStyle=orthogonalEdgeStyle;rounded=1;orthogonalLoop=1;jettySize=auto;html=1;curved=0;endArrow=none;startFill=0;" parent="1" source="RrWGtmdC04Ay6vht-ITu-217" target="RrWGtmdC04Ay6vht-ITu-109" edge="1">
          <mxGeometry relative="1" as="geometry" />
        </mxCell>
        <mxCell id="RrWGtmdC04Ay6vht-ITu-217" value="&lt;u&gt;OrderItemID&lt;/u&gt;" style="ellipse;whiteSpace=wrap;html=1;" parent="1" vertex="1">
          <mxGeometry x="920" y="640" width="80" height="40" as="geometry" />
        </mxCell>
        <mxCell id="RrWGtmdC04Ay6vht-ITu-223" style="edgeStyle=orthogonalEdgeStyle;rounded=1;orthogonalLoop=1;jettySize=auto;html=1;curved=0;endArrow=none;startFill=0;" parent="1" source="RrWGtmdC04Ay6vht-ITu-218" target="RrWGtmdC04Ay6vht-ITu-109" edge="1">
          <mxGeometry relative="1" as="geometry" />
        </mxCell>
        <mxCell id="RrWGtmdC04Ay6vht-ITu-218" value="OrderID" style="ellipse;whiteSpace=wrap;html=1;" parent="1" vertex="1">
          <mxGeometry x="840" y="640" width="80" height="40" as="geometry" />
        </mxCell>
        <mxCell id="RrWGtmdC04Ay6vht-ITu-224" style="edgeStyle=orthogonalEdgeStyle;rounded=1;orthogonalLoop=1;jettySize=auto;html=1;curved=0;endArrow=none;startFill=0;" parent="1" source="RrWGtmdC04Ay6vht-ITu-219" target="RrWGtmdC04Ay6vht-ITu-109" edge="1">
          <mxGeometry relative="1" as="geometry" />
        </mxCell>
        <mxCell id="RrWGtmdC04Ay6vht-ITu-219" value="ProductID" style="ellipse;whiteSpace=wrap;html=1;" parent="1" vertex="1">
          <mxGeometry x="1000" y="640" width="80" height="40" as="geometry" />
        </mxCell>
        <mxCell id="RrWGtmdC04Ay6vht-ITu-226" style="edgeStyle=orthogonalEdgeStyle;rounded=1;orthogonalLoop=1;jettySize=auto;html=1;curved=0;endArrow=none;startFill=0;" parent="1" source="RrWGtmdC04Ay6vht-ITu-220" target="RrWGtmdC04Ay6vht-ITu-109" edge="1">
          <mxGeometry relative="1" as="geometry" />
        </mxCell>
        <mxCell id="RrWGtmdC04Ay6vht-ITu-220" value="Quantity" style="ellipse;whiteSpace=wrap;html=1;" parent="1" vertex="1">
          <mxGeometry x="1040" y="520" width="80" height="40" as="geometry" />
        </mxCell>
        <mxCell id="RrWGtmdC04Ay6vht-ITu-225" style="edgeStyle=orthogonalEdgeStyle;rounded=1;orthogonalLoop=1;jettySize=auto;html=1;curved=0;endArrow=none;startFill=0;" parent="1" source="RrWGtmdC04Ay6vht-ITu-221" target="RrWGtmdC04Ay6vht-ITu-109" edge="1">
          <mxGeometry relative="1" as="geometry" />
        </mxCell>
        <mxCell id="RrWGtmdC04Ay6vht-ITu-221" value="Subtotal" style="ellipse;whiteSpace=wrap;html=1;" parent="1" vertex="1">
          <mxGeometry x="1040" y="560" width="80" height="40" as="geometry" />
        </mxCell>
      </root>
    </mxGraphModel>
  </diagram>
</mxfile>
